<?xml version="1.0" standalone="no"?><!DOCTYPE svg PUBLIC "-//W3C//DTD SVG 1.1//EN" "http://www.w3.org/Graphics/SVG/1.1/DTD/svg11.dtd"><svg t="1698429951684" class="icon" viewBox="0 0 1024 1024" version="1.1" xmlns="http://www.w3.org/2000/svg" p-id="11026" xmlns:xlink="http://www.w3.org/1999/xlink" width="64" height="64"><path d="M885.248 557.056c78.336-31.232 133.632-107.008 133.632-195.584 0-116.736-96.256-210.944-215.04-210.944-12.288 0-28.672 0.512-36.864 3.072-8.192 2.56-17.408 14.848-18.944 28.672-3.072 29.696 24.576 37.376 30.72 37.888 0.512 0 11.776 1.024 24.576 1.024 79.36 0 143.36 62.976 143.36 140.8s-64 140.8-143.36 140.8h-609.28c-3.072 0-6.144 0.512-9.216 1.024H132.096c-19.968 0-35.84 15.872-35.84 35.328s15.872 35.328 35.84 35.328h609.792c79.36 0 143.36 62.976 143.36 140.8s-64 140.8-143.36 140.8-133.12-62.976-133.12-140.8v-2.56c0-19.456-16.384-34.816-36.352-34.816s-35.84 15.872-35.328 35.328v2.048c0 116.736 86.016 210.944 204.8 210.944s215.04-94.72 215.04-210.944c0.512-62.976-27.648-119.296-71.68-158.208z" p-id="11027" fill="#ffffff"></path><path d="M620.032 256c0-103.936-86.016-161.28-192-161.28-11.264 0-25.6 0.512-32.768 2.56-7.168 2.56-15.36 13.312-16.896 25.6-2.56 26.624 22.016 33.28 27.648 33.792 0.512 0 10.752 0.512 22.016 0.512 70.656 0 128 29.184 128 98.816 0 69.12-57.344 125.44-128 125.44H37.888c-17.92 0-31.744 13.824-31.744 31.232s14.336 31.232 31.744 31.232h390.144c105.984 0.512 192-83.968 192-187.904zM660.48 357.888c0 1.024 0 0 0 0z" p-id="11028" fill="#ffffff"></path></svg>